HIERARCHY
ROOT joint_Root
{
	OFFSET 0.0 0.0 0.0
	CHANNELS 6 Xposition Yposition Zposition Zrotation Xrotation Yrotation 
	JOINT Hips
	{
		OFFSET -0.726466 93.3139 -2.00062
		CHANNELS 6 Xposition Yposition Zposition Zrotation Xrotation Yrotation 
		JOINT Spine
		{
			OFFSET 15.7357 0.0 0.0
			CHANNELS 6 Xposition Yposition Zposition Zrotation Xrotation Yrotation 
			JOINT Chest
			{
				OFFSET 8.98455 -0.406207 0.0
				CHANNELS 6 Xposition Yposition Zposition Zrotation Xrotation Yrotation 
				JOINT Neck
				{
					OFFSET 16.3773 0.0 0.0
					CHANNELS 6 Xposition Yposition Zposition Zrotation Xrotation Yrotation 
					JOINT Head
					{
						OFFSET 6.45672 0.0 0.0
						CHANNELS 6 Xposition Yposition Zposition Zrotation Xrotation Yrotation 
						End Site
						{
							OFFSET 0.0 0.0 0.0
						}
					}
				}
				JOINT Shoulder_L
				{
					OFFSET 12.9942 -0.242716 4.98039
					CHANNELS 6 Xposition Yposition Zposition Zrotation Xrotation Yrotation 
					JOINT UpperArm_L
					{
						OFFSET 5.34809 0.0 0.0
						CHANNELS 6 Xposition Yposition Zposition Zrotation Xrotation Yrotation 
						JOINT LowerArm_L
						{
							OFFSET 24.3286 1.87007e-05 0.0
							CHANNELS 6 Xposition Yposition Zposition Zrotation Xrotation Yrotation 
							JOINT Hand_L
							{
								OFFSET 22.2916 0.0 0.0
								CHANNELS 6 Xposition Yposition Zposition Zrotation Xrotation Yrotation 
								End Site
								{
									OFFSET 0.0 0.0 0.0
								}
							}
						}
					}
				}
				JOINT Shoulder_R
				{
					OFFSET 12.9945 -0.242716 -4.98039
					CHANNELS 6 Xposition Yposition Zposition Zrotation Xrotation Yrotation 
					JOINT UpperArm_R
					{
						OFFSET -5.34813 0.0 0.0
						CHANNELS 6 Xposition Yposition Zposition Zrotation Xrotation Yrotation 
						JOINT LowerArm_R
						{
							OFFSET -24.3289 0.000322201 0.0
							CHANNELS 6 Xposition Yposition Zposition Zrotation Xrotation Yrotation 
							JOINT Hand_R
							{
								OFFSET -22.2915 -0.000108084 0.0
								CHANNELS 6 Xposition Yposition Zposition Zrotation Xrotation Yrotation 
								End Site
								{
									OFFSET 0.0 0.0 0.0
								}
							}
						}
					}
				}
			}
		}
		JOINT UpperLeg_L
		{
			OFFSET -2.19248 -6.46944 0.0
			CHANNELS 6 Xposition Yposition Zposition Zrotation Xrotation Yrotation 
			JOINT LowerLeg_L
			{
				OFFSET 39.0811 0.0 -1.23785e-05
				CHANNELS 6 Xposition Yposition Zposition Zrotation Xrotation Yrotation 
				JOINT Foot_L
				{
					OFFSET 40.9854 0.0 -1.26872e-05
					CHANNELS 6 Xposition Yposition Zposition Zrotation Xrotation Yrotation 
					JOINT Toes_L
					{
						OFFSET 11.7543 0.0 0.0
						CHANNELS 6 Xposition Yposition Zposition Zrotation Xrotation Yrotation 
						End Site
						{
							OFFSET 0.0 0.0 0.0
						}
					}
				}
			}
		}
		JOINT UpperLeg_R
		{
			OFFSET -2.19251 6.46944 0.0
			CHANNELS 6 Xposition Yposition Zposition Zrotation Xrotation Yrotation 
			JOINT LowerLeg_R
			{
				OFFSET -39.0811 -0.00228153 -0.0401928
				CHANNELS 6 Xposition Yposition Zposition Zrotation Xrotation Yrotation 
				JOINT Foot_R
				{
					OFFSET -40.9854 0.0 0.0
					CHANNELS 6 Xposition Yposition Zposition Zrotation Xrotation Yrotation 
					JOINT Toes_R
					{
						OFFSET -11.7543 0.0 0.0
						CHANNELS 6 Xposition Yposition Zposition Zrotation Xrotation Yrotation 
						End Site
						{
							OFFSET 0.0 0.0 0.0
						}
					}
				}
			}
		}
	}
}
MOTION
Frames:	4
Frame Time:	0.0333333
0.000000 0.000000 0.000000 0.000000 0.000000 -0.000000 0.112782 92.393700 -0.883478 87.854300 -0.481266 4.529610 15.735700 0.000005 -0.000001 87.946700 86.297600 -88.465100 8.984550 -0.406207 -0.000000 -0.366906 -0.228461 -1.036760 16.377300 -0.000001 -0.000001 3.378390 -2.749990 2.147210 6.456720 -0.000001 -0.000000 5.406540 -3.650000 -2.134980 12.994200 -0.242716 4.980390 -89.554100 -1.329070 -71.450600 5.348090 -0.000007 -0.000001 -70.519300 36.048300 -10.730200 24.328600 0.000019 0.000005 1.807360 4.608390 -21.441600 22.291600 -0.000001 0.000005 5.892270 5.473970 -5.519400 12.994500 -0.242716 -4.980390 90.358900 -0.977143 -69.832700 -5.348130 -0.000001 -0.000004 -77.409400 -30.448700 -100.551000 -24.328900 0.000322 -0.000009 15.045100 1.385410 -84.861500 -22.291500 -0.000108 -0.000004 19.624900 5.358740 -1.641180 -2.192480 -6.469440 -0.000000 -175.605000 -7.310110 -2.222650 39.081100 -0.000007 -0.000012 -0.097550 0.233922 22.637000 40.985400 -0.000006 -0.000013 0.561869 4.722520 -66.153300 11.754300 -0.000000 0.000003 -0.000039 -0.000459 -16.595400 -2.192510 6.469440 -0.000001 179.688000 14.108800 -179.491000 -39.081100 -0.002282 -0.040193 -0.007182 0.030618 18.937600 -40.985400 0.000008 0.000006 4.149680 7.402550 -65.496900 -11.754300 -0.000006 -0.000006 -0.009261 -0.098029 -20.566300
0.000000 0.000000 0.000000 0.000000 0.000000 -0.000000 0.135334 92.389000 -0.896417 87.855200 -0.467634 4.467310 15.735700 0.000005 -0.000001 87.891800 86.296700 -88.385700 8.984550 -0.406207 -0.000000 -0.365287 -0.237361 -0.987985 16.377300 -0.000001 -0.000001 3.362740 -2.729980 2.183800 6.456720 -0.000001 -0.000000 5.422460 -3.647800 -2.105330 12.994200 -0.242716 4.980390 -89.542900 -1.361380 -71.438600 5.348090 -0.000007 -0.000001 -70.729100 36.186400 -10.602900 24.328600 0.000019 0.000005 1.754780 4.480900 -21.411400 22.291600 -0.000001 0.000005 5.839130 5.473530 -5.502750 12.994500 -0.242716 -4.980390 90.370600 -1.007710 -69.804100 -5.348130 -0.000001 -0.000004 -77.525800 -30.522900 -100.607000 -24.328900 0.000322 -0.000009 15.123500 1.390360 -84.871100 -22.291500 -0.000108 -0.000004 19.640000 5.358280 -1.627510 -2.192480 -6.469440 -0.000000 -175.636000 -7.337530 -2.317450 39.081100 -0.000007 -0.000012 -0.095610 0.228752 22.683300 40.985400 -0.000006 -0.000013 0.593855 4.750400 -66.171200 11.754300 -0.000000 0.000003 -0.000044 -0.000503 -16.597100 -2.192510 6.469440 -0.000001 179.688000 14.054800 -179.587000 -39.081100 -0.002282 -0.040193 -0.009184 0.036371 18.976400 -40.985400 0.000008 0.000006 4.061400 7.360020 -65.488900 -11.754300 -0.000006 -0.000006 -0.009309 -0.098398 -20.581400
0.000000 0.000000 0.000000 0.000000 0.000000 -0.000000 0.147929 92.394300 -0.909084 87.853200 -0.444354 4.411590 15.735700 0.000005 -0.000001 87.796300 86.293700 -88.266800 8.984550 -0.406207 -0.000000 -0.359862 -0.251605 -0.941238 16.377300 -0.000001 -0.000001 3.388590 -2.777340 2.234090 6.456720 -0.000001 -0.000000 5.408660 -3.674190 -2.097310 12.994200 -0.242716 4.980390 -89.544600 -1.358450 -71.465400 5.348090 -0.000007 -0.000001 -70.920600 36.175300 -10.465500 24.328600 0.000019 0.000005 1.793510 4.597220 -21.338900 22.291600 -0.000001 0.000005 5.776230 5.475370 -5.572180 12.994500 -0.242716 -4.980390 90.375800 -1.018000 -69.734400 -5.348130 -0.000001 -0.000004 -77.527100 -30.549900 -100.413000 -24.328900 0.000322 -0.000009 14.743700 1.324590 -84.981400 -22.291500 -0.000108 -0.000004 19.872300 5.360940 -1.708300 -2.192480 -6.469440 -0.000000 -175.664000 -7.263030 -2.375290 39.081100 -0.000007 -0.000012 -0.094030 0.225240 22.658900 40.985400 -0.000006 -0.000013 0.598119 4.715990 -66.149500 11.754300 -0.000000 0.000003 -0.000043 -0.000491 -16.596700 -2.192510 6.469440 -0.000001 179.695000 14.070000 -179.641000 -39.081100 -0.002282 -0.040193 -0.009460 0.037249 18.942000 -40.985400 0.000008 0.000006 4.036820 7.358590 -65.454000 -11.754300 -0.000006 -0.000006 -0.009420 -0.099252 -20.616300
0.000000 0.000000 0.000000 0.000000 0.000000 -0.000000 0.171875 92.398200 -0.923165 87.860800 -0.431677 4.419960 15.735700 0.000005 -0.000001 87.755000 86.271200 -88.206100 8.984550 -0.406207 -0.000000 -0.315085 -0.260258 -0.902393 16.377300 -0.000001 -0.000001 3.438280 -2.808840 2.333250 6.456720 -0.000001 -0.000000 5.414710 -3.687900 -2.153920 12.994200 -0.242716 4.980390 -89.555100 -1.326920 -71.461100 5.348090 -0.000007 -0.000001 -71.001700 36.321000 -10.356700 24.328600 0.000019 0.000005 1.810450 4.632610 -21.373000 22.291600 -0.000001 0.000005 5.825160 5.474650 -5.544850 12.994500 -0.242716 -4.980390 90.381600 -1.029520 -69.662500 -5.348130 -0.000001 -0.000004 -77.215600 -30.622900 -99.681100 -24.328900 0.000322 -0.000009 14.194300 1.168390 -85.392500 -22.291500 -0.000108 -0.000004 20.547900 5.363070 -1.773440 -2.192480 -6.469440 -0.000000 -175.668000 -7.318790 -2.372960 39.081100 -0.000007 -0.000012 -0.096243 0.230768 22.638900 40.985400 -0.000006 -0.000013 0.620229 4.786800 -66.125000 11.754300 -0.000000 0.000003 -0.000050 -0.000568 -16.599600 -2.192510 6.469440 -0.000001 179.667000 14.103200 -179.623000 -39.081100 -0.002282 -0.040193 -0.009000 0.035961 18.915500 -40.985400 0.000008 0.000006 4.003300 7.401680 -65.431100 -11.754300 -0.000006 -0.000006 -0.009411 -0.099181 -20.613400
